<svg id="Layer_1" data-name="Layer 1" xmlns="http://www.w3.org/2000/svg" xmlns:xlink="http://www.w3.org/1999/xlink" viewBox="0 0 405.77 357.43"><defs><style>.cls-1{fill:#ff8a00;}.cls-2{fill:#ffd6a9;}.cls-3{fill:url(#linear-gradient);}.cls-4{fill:#f3a71c;}.cls-5{fill:#56403d;}.cls-6{fill:url(#linear-gradient-2);}.cls-7{fill:url(#linear-gradient-3);}.cls-8{fill:#6de1fc;}.cls-9{fill:#e54c3c;}.cls-10{fill:#f5604b;}.cls-11{fill:#c67445;}.cls-12{fill:#68e1fd;}.cls-13{fill:#fff;}.cls-14{fill:#f1a317;}.cls-15{fill:#974c26;}.cls-16{fill:#999a1c;}.cls-17{fill:#ab643c;}.cls-18{fill:#a8a93d;}.cls-19{fill:#fbb5ad;}.cls-20{fill:#382624;}.cls-21{fill:#e2e2e2;}.cls-22{fill:#e35541;}.cls-23,.cls-32{fill:none;stroke-miterlimit:10;}.cls-23{stroke:#56403d;stroke-linecap:round;stroke-dasharray:3.04 5.06;}.cls-24{fill:#be6b3d;}.cls-25{fill:#009245;}.cls-26{fill:#5c2e2e;}.cls-27{fill:#fdc49a;}.cls-28{fill:#faedd4;}.cls-29{fill:#155a93;}.cls-30{fill:#659fe4;}.cls-31{fill:#c5e9ff;}.cls-32{stroke:#fff;}.cls-33{fill:#663535;}.cls-34{fill:url(#linear-gradient-4);}</style><linearGradient id="linear-gradient" x1="281.5" y1="321.47" x2="263.73" y2="299.27" gradientTransform="matrix(1, 0, 0, -1, 0, 602)" gradientUnits="userSpaceOnUse"><stop offset="0" stop-color="#d4a397"/><stop offset="0.99" stop-color="#ffd6a9"/></linearGradient><linearGradient id="linear-gradient-2" x1="331.96" y1="257.49" x2="326.68" y2="248.53" gradientTransform="matrix(1, 0, 0, -1, -181.32, 484.17)" xlink:href="#linear-gradient"/><linearGradient id="linear-gradient-3" x1="433.21" y1="214.24" x2="408.27" y2="193.94" xlink:href="#linear-gradient"/><linearGradient id="linear-gradient-4" x1="530.18" y1="241.08" x2="512.2" y2="221.36" xlink:href="#linear-gradient"/></defs><path id="blob" class="cls-1" d="M571.86,402q-36.5,68.5-105,72.5t-114-12.5q-45.5-16.5-79-48.5T198.36,318q-42-63.5,19.5-104.5t129-80.5q67.5-39.49,113.5,24a1435.64,1435.64,0,0,0,97,120Q608.36,333.48,571.86,402Z" transform="translate(-181.32 -117.83)"/><path class="cls-2" d="M373.65,219.21,212.4,313a10.27,10.27,0,0,0,.15,17.84L409.94,441.31a16.27,16.27,0,0,0,15.64.13l151.65-81.56a12.36,12.36,0,0,0,.38-21.56Z" transform="translate(-181.32 -117.83)"/><path class="cls-3" d="M262.23,284.44,242.3,296s1.11,16.91,21.51,14.29l36.77-20.14" transform="translate(-181.32 -117.83)"/><ellipse class="cls-4" cx="103.06" cy="164.86" rx="22.17" ry="10.96"/><path class="cls-4" d="M306.54,253.51v29.8s-16.5,15.27-44.33.25v-30" transform="translate(-181.32 -117.83)"/><path class="cls-4" d="M265.53,264.16s-3.67-5.62-7.13-2.38-.43,14.48,9.72,15.56v4.54s-12.75-1.73-14.48-13.18,6.49-13.22,10.59-10.07" transform="translate(-181.32 -117.83)"/><path class="cls-5" d="M391,293.17l-19.13,9.21a4.39,4.39,0,0,0-2.06,5.87,4.46,4.46,0,0,0,1.75,1.9l45.35,26.45a4.4,4.4,0,0,0,5.92-1.42l11-17.14" transform="translate(-181.32 -117.83)"/><polyline class="cls-6" points="166.23 233.04 90.95 193.4 79.45 200.9 202.21 268.1 219.11 257.05"/><path class="cls-7" d="M412.44,388.45l-17.92,10.62s11.75,11.26,25.43,17l16.63-10.86" transform="translate(-181.32 -117.83)"/><polyline class="cls-8" points="229.4 263 229.4 271.38 255.26 287.38 286.29 268.42 286.29 261.28"/><polyline class="cls-9" points="229.4 263 229.4 271.38 255.26 287.38 286.29 268.42 286.29 261.28"/><polygon class="cls-10" points="286.29 261.28 259.94 245.52 229.4 263 255.75 279.01 286.29 261.28"/><path class="cls-11" d="M442.6,384.78a13.85,13.85,0,0,1-1.73-2.69c-.11-.64,1.45-3.69,1.74-3.6a14.21,14.21,0,0,1,2.92,1.93" transform="translate(-181.32 -117.83)"/><path class="cls-5" d="M442.88,379.78c.06.24-.86,4.83-.28,5a20.67,20.67,0,0,0,3.69,0,46.6,46.6,0,0,0,.42-5" transform="translate(-181.32 -117.83)"/><path class="cls-11" d="M447.23,373.92l-4.62,1.29c0,.11-.76,4.27-.18,4.89a24.65,24.65,0,0,0,2.3,1.44,35.25,35.25,0,0,0,.25,4.35,2.31,2.31,0,0,0,.83,0c.19-1.51.45-4.58.45-4.58s1.35-.47,1.43-.89S447.23,373.92,447.23,373.92Z" transform="translate(-181.32 -117.83)"/><path class="cls-11" d="M456.64,406.45a17.22,17.22,0,0,1-2.16-3.36c-.16-.81,1.81-4.61,2.18-4.5A18,18,0,0,1,460.3,401" transform="translate(-181.32 -117.83)"/><path class="cls-5" d="M457,400.19c.07.3-1.08,6-.35,6.26a25.35,25.35,0,0,0,4.61,0c.24,0,.52-6.26.52-6.26" transform="translate(-181.32 -117.83)"/><path class="cls-11" d="M462.43,392.93l-5.77,1.61c0,.14-1,5.33-.23,6.1s2.92,1.66,2.87,1.8a44.65,44.65,0,0,0,.31,5.42,2.8,2.8,0,0,0,1,0c.23-1.89.56-5.72.56-5.72s1.69-.59,1.78-1.11S462.43,392.93,462.43,392.93Z" transform="translate(-181.32 -117.83)"/><path class="cls-12" d="M495.11,248.85l-152.6-87.91a6.87,6.87,0,0,0-10.32,6v91.45a5.7,5.7,0,0,0,2.86,5l162.66,93.89a3.69,3.69,0,0,0,5-1.35,3.64,3.64,0,0,0,.5-1.85V262.93A16.26,16.26,0,0,0,495.11,248.85Z" transform="translate(-181.32 -117.83)"/><path class="cls-13" d="M342.53,167.85l148,85.13a10.37,10.37,0,0,1,5.2,9v68.56a3.76,3.76,0,0,1-5.61,3.25l-150.89-86.6a3.69,3.69,0,0,1-1.86-3.2V170.86a3.47,3.47,0,0,1,5.16-3Z" transform="translate(-181.32 -117.83)"/><path class="cls-8" d="M333.53,269.28c2.72-.45,34.23,19.27,34.23,19.27v7.71l-12.92,7.25-35.13-19.27v-9.06Z" transform="translate(-181.32 -117.83)"/><path class="cls-14" d="M333.53,269.28c2.72-.45,34.23,19.27,34.23,19.27v7.71l-12.92,7.25-35.13-19.27v-9.06Z" transform="translate(-181.32 -117.83)"/><path class="cls-15" d="M312.23,288.42l-40,22.82a2.74,2.74,0,0,0,0,4.75l110.91,63.79a8.85,8.85,0,0,0,8.85,0l37.35-21.57a2.86,2.86,0,0,0,1.11-3.89,2.82,2.82,0,0,0-1.11-1.11L317.14,288.4A5,5,0,0,0,312.23,288.42Z" transform="translate(-181.32 -117.83)"/><path class="cls-8" d="M337.85,363.09a3.28,3.28,0,0,0-1.85-2.44l-5.92-3.42-9.15-5.3L310,345.6l-11.63-6.74-11.25-6.51-9.78-5.66-7.23-4.19-3.8-2.2c0,.08-.13.08-.21.06a2.71,2.71,0,0,0-3.31,1.93,2.65,2.65,0,0,0,0,1.37,8.66,8.66,0,0,0,3.27,4.27,132.57,132.57,0,0,0,13.83,8.68V334.9c-3.22-1.76-10.16-5.74-13.08-8.74l1.39.81,3.83,2.24,5.76,3.37,7.19,4.2,8.12,4.74,8.54,5,8.46,5,7.88,4.6,6.79,4,5.2,3c1.59.93,3.31,2.19,5.16,2.55a2.54,2.54,0,0,0,2.71-2.36A1,1,0,0,0,337.85,363.09Z" transform="translate(-181.32 -117.83)"/><path class="cls-16" d="M337.85,363.09a3.28,3.28,0,0,0-1.85-2.44l-5.92-3.42-9.15-5.3L310,345.6l-11.63-6.74-11.25-6.51-9.78-5.66-7.23-4.19-3.8-2.2c0,.08-.13.08-.21.06a2.71,2.71,0,0,0-3.31,1.93,2.65,2.65,0,0,0,0,1.37,8.66,8.66,0,0,0,3.27,4.27,132.57,132.57,0,0,0,13.83,8.68V334.9c-3.22-1.76-10.16-5.74-13.08-8.74l1.39.81,3.83,2.24,5.76,3.37,7.19,4.2,8.12,4.74,8.54,5,8.46,5,7.88,4.6,6.79,4,5.2,3c1.59.93,3.31,2.19,5.16,2.55a2.54,2.54,0,0,0,2.71-2.36A1,1,0,0,0,337.85,363.09Z" transform="translate(-181.32 -117.83)"/><ellipse class="cls-17" cx="404.08" cy="293.55" rx="3.22" ry="3.68" transform="translate(-229.54 -36.13) rotate(-10.9)"/><path class="cls-18" d="M404.66,216.16l43.13,25a2.81,2.81,0,0,1,1.4,2.54l-1.49,38.71a2.81,2.81,0,0,1-2.91,2.7,2.92,2.92,0,0,1-1.3-.37l-41.64-23.93a2.84,2.84,0,0,1-1.41-2.44V218.6a2.81,2.81,0,0,1,4.22-2.44Z" transform="translate(-181.32 -117.83)"/><path class="cls-19" d="M420.11,223v-.09l-.16-1.35c-1.67-.08-2.62.32-4.29.33a5.76,5.76,0,0,0-1.57,3.09c0,.83.1,2,1.12,1.88.16.77.61,1.78,1.52,1.57l.12,0c.06.51.22,1,.71,1.15s.8-.12,1-.57c.18.68.5,1.72,1.19,1.71.94,0,1-1.39.76-2.77A36.51,36.51,0,0,0,420.11,223Z" transform="translate(-181.32 -117.83)"/><path class="cls-5" d="M415.45,224.48a6,6,0,0,0-.34,2.33.19.19,0,0,0,.38,0,5.63,5.63,0,0,1,.33-2.23C415.9,224.35,415.53,224.25,415.45,224.48Z" transform="translate(-181.32 -117.83)"/><path class="cls-5" d="M416.85,225.24l-.16,3.21a.19.19,0,0,0,.38,0l.16-3.21A.19.19,0,0,0,416.85,225.24Z" transform="translate(-181.32 -117.83)"/><path class="cls-5" d="M418.23,224.78V229a.19.19,0,0,0,.19.19.2.2,0,0,0,.19-.19v-4.25a.19.19,0,0,0-.19-.19A.18.18,0,0,0,418.23,224.78Z" transform="translate(-181.32 -117.83)"/><path class="cls-19" d="M419.93,221.51a7.7,7.7,0,0,1,2.11,4.8l-1.81-1.14Z" transform="translate(-181.32 -117.83)"/><path class="cls-19" d="M436.75,230.57s-1.34.24-1.37.22c-1.16.73-4.11,2.24-5.34,2.83-.73.35-2.54,1.11-2.14,2.21.21.59.8.69,1.56.52a.71.71,0,0,0,.32.85,1.44,1.44,0,0,0,1.47-.16.84.84,0,0,0,.29.47c.63.54,1.83-.06,2.52-.38a2.41,2.41,0,0,0,0,.38c0,.4.4.79.77.59,1.77-.94,4.55-4.37,5.36-6C438.51,231.46,438.4,231.27,436.75,230.57Z" transform="translate(-181.32 -117.83)"/><path class="cls-5" d="M435.55,235.4a8.9,8.9,0,0,1-1.64,1.72c-.18.14.07.38.25.25a9,9,0,0,0,1.7-1.79C436,235.4,435.68,235.22,435.55,235.4Z" transform="translate(-181.32 -117.83)"/><path class="cls-5" d="M434.5,234.51c-1,.81-2.06,1.6-3.12,2.36-.18.13,0,.43.18.3,1.11-.78,2.18-1.58,3.19-2.39C434.92,234.62,434.67,234.37,434.5,234.51Z" transform="translate(-181.32 -117.83)"/><path class="cls-5" d="M432.85,234.07a22.06,22.06,0,0,1-3.46,2c-.2.1,0,.4.18.3a22.06,22.06,0,0,0,3.46-2C433.23,234.24,433,233.94,432.85,234.07Z" transform="translate(-181.32 -117.83)"/><path class="cls-19" d="M435.38,230.78s-1.69-1.24-4.54.66l2.39,1.49" transform="translate(-181.32 -117.83)"/><path class="cls-19" d="M472.67,296.87a.54.54,0,0,0-.66-.36l0,0a5.57,5.57,0,0,0,0-1c0-.47-.09-1.14-.6-1.34a.72.72,0,0,0-.84.25,5.44,5.44,0,0,0-.25-.9.53.53,0,0,0-.51-.38c-.57,0-.86.46-1,1,0-.05-.21-.24-.26-.27a.54.54,0,0,0-.32-.11.86.86,0,0,0-.6.18.89.89,0,0,0-.28.61,4.43,4.43,0,0,0,0,1.15c0,.47.1.93.13,1.4s0,.66,0,1c-.44-.85-1.06-1.91-1.78-1.41s-.09,1.18.11,1.65a18.82,18.82,0,0,0,1.46,2.68,10.7,10.7,0,0,1-.31,1.24,26.91,26.91,0,0,1,3.87,1.94,33.69,33.69,0,0,1,1.43-3.9A4.57,4.57,0,0,0,472.67,296.87Z" transform="translate(-181.32 -117.83)"/><path class="cls-5" d="M468.67,294.15q-.06,1.94-.21,3.87a.09.09,0,0,0,.17,0q.15-1.93.21-3.87A.09.09,0,1,0,468.67,294.15Z" transform="translate(-181.32 -117.83)"/><path class="cls-5" d="M470.41,294.48q-.17,1.74-.42,3.48c0,.11.15.16.17,0,.17-1.18.32-2.35.43-3.53C470.59,294.37,470.42,294.37,470.41,294.48Z" transform="translate(-181.32 -117.83)"/><path class="cls-5" d="M471.93,296.64c-.09.81-.21,1.62-.38,2.42,0,.11.15.16.17,0,.17-.82.29-1.64.38-2.46C472.11,296.53,471.94,296.53,471.93,296.64Z" transform="translate(-181.32 -117.83)"/><path class="cls-19" d="M432.4,296.67c-.12-.27-.24-.54-.35-.82a.93.93,0,0,1-.07-.46,9.38,9.38,0,0,0,.18-1.28,11.42,11.42,0,0,0-.81-4,1.38,1.38,0,0,0-1.72-.91,1.54,1.54,0,0,0-.34.17l-.37-.67c-.69-1.22-1.43-3.32-3-3.48a.73.73,0,0,0-.76.73.63.63,0,0,0,0,.27q.45,1.18.93,2.34a.72.72,0,0,0-1,0l0,0a1.28,1.28,0,0,0-.25,1.45h-.19a1.14,1.14,0,0,0-.54-.14,1,1,0,0,0-.77.41,1.11,1.11,0,0,0-.16,1H423a1,1,0,0,0-.62.68,1.16,1.16,0,0,0,0,.64c-.08.78,4,4.6,4,4.6l2.42,2.65,4.06-1.93A5.35,5.35,0,0,0,432.4,296.67Z" transform="translate(-181.32 -117.83)"/><path class="cls-4" d="M459.93,333.49c-7.21-12.32-14-.28-14-.28a44.69,44.69,0,0,0-6.45,12.57c-1.66,5.66-1.65,24-.83,29.46,3,1.16,9.71.81,12.84-.08v-22a.27.27,0,0,1,.32-.22.28.28,0,0,1,.21.22l.15,43.69a39.51,39.51,0,0,0,15.44-2.54S466.71,345.08,459.93,333.49Z" transform="translate(-181.32 -117.83)"/><path class="cls-10" d="M432.45,295.44c-2.17.53-3.65,1.67-5.53,2.87.69,2.42,8.25,21.32,17.76,25.32l.76-13.45S441.23,309.78,432.45,295.44Z" transform="translate(-181.32 -117.83)"/><path class="cls-10" d="M465.72,301.31a15.84,15.84,0,0,1-7.37,11.47l1.29,12.35c5.77-3.71,11.85-17.5,12.74-21.1A9.34,9.34,0,0,0,465.72,301.31Z" transform="translate(-181.32 -117.83)"/><path class="cls-10" d="M443.6,324.39l1.27,11.07s9.12,3.45,15.87,0V324.24" transform="translate(-181.32 -117.83)"/><path class="cls-5" d="M465,321.21a4.92,4.92,0,0,0-.9-1.71,18.39,18.39,0,0,0-2.08-2.06,1.5,1.5,0,0,1-.42-.55c-.31-.94.79-2.38.64-3.53-.23-1.7-1.31-2.27-2.37-3.39a3.78,3.78,0,0,1-1.07-2.12,18.42,18.42,0,0,1-1.4-3.84c-.77-2.17-2-4.57-4.33-5.36a7.16,7.16,0,0,0-7.41,1.9c-1.6,1.83-1.29,4.32-1.47,6.61a2.42,2.42,0,0,1,.21.66c.31,2.22-2.61,2.32-2.88,4.08a3.06,3.06,0,0,0,.05,1,7.63,7.63,0,0,0,1.58,3.44c2,2.7-2.65,4.09-2.63,6.59a5.13,5.13,0,0,0,2.85,4.28,18.83,18.83,0,0,0,12.74,1.45C459.34,327.93,466.13,325.27,465,321.21Zm-17.8-4.12v-.16h.18Z" transform="translate(-181.32 -117.83)"/><polygon class="cls-5" points="270.17 235.3 260.03 233.04 269.67 240.56 270.17 235.3"/><path class="cls-5" d="M427.55,291a33.23,33.23,0,0,1-2-4.87c-.08-.26-.5-.15-.41.11a33.64,33.64,0,0,0,2,5A.24.24,0,0,0,427.55,291Z" transform="translate(-181.32 -117.83)"/><path class="cls-5" d="M426,292a19.53,19.53,0,0,1-1.06-2.09c-.11-.25-.48,0-.37.22a19.53,19.53,0,0,0,1.06,2.09.21.21,0,0,0,.29.07A.21.21,0,0,0,426,292Z" transform="translate(-181.32 -117.83)"/><path class="cls-5" d="M424.42,293.08a6.29,6.29,0,0,1-1-1.9c-.08-.26-.5-.15-.41.11a6.59,6.59,0,0,0,1,2C424.23,293.52,424.59,293.3,424.42,293.08Z" transform="translate(-181.32 -117.83)"/><path class="cls-5" d="M430.78,291.83c-.41-.84-.79-1.7-1.14-2.57-.1-.25-.52-.14-.41.11.36.9.75,1.79,1.18,2.67C430.53,292.3,430.9,292.08,430.78,291.83Z" transform="translate(-181.32 -117.83)"/><path class="cls-19" d="M335.63,214.68a.69.69,0,0,0,.09-.34,4.29,4.29,0,0,0-1.35-3.16,1.47,1.47,0,0,0-2.09.1,1.4,1.4,0,0,0-.22.32c-.94,1.93,1.21,3.86,2.93,4.09.48.06.67-.34.59-.72A.74.74,0,0,0,335.63,214.68Z" transform="translate(-181.32 -117.83)"/><polygon class="cls-20" points="152.6 130.2 149.14 128.27 152.02 136.15 152.6 130.2"/><path class="cls-13" d="M372.52,324.78l-11.4,6.75,8.46,4.91c2.39-1.39,9.23-5.43,11.43-6.73Z" transform="translate(-181.32 -117.83)"/><path class="cls-13" d="M360,317.54l-11.4,6.75,10.71,6.22c1.87-1.08,8.78-5.16,11.44-6.73Z" transform="translate(-181.32 -117.83)"/><path class="cls-13" d="M314.67,291.2l-11.58,6.65,10.3,6c1.63-.94,8.62-5.07,11.44-6.73Z" transform="translate(-181.32 -117.83)"/><path class="cls-13" d="M339.06,305.36l-11.4,6.75,8.46,4.91c2-1.16,8.87-5.22,11.44-6.73Z" transform="translate(-181.32 -117.83)"/><path class="cls-13" d="M326.57,298.11l-11.4,6.75,10.71,6.22c1.26-.72,8.43-5,11.44-6.73Z" transform="translate(-181.32 -117.83)"/><path class="cls-13" d="M382.75,330.78l-11.4,6.75,8.09,4.7c2.43-1.42,9.28-5.46,11.43-6.73Z" transform="translate(-181.32 -117.83)"/><path class="cls-13" d="M349.29,311.3l-11.4,6.75,9,5.2c2.11-1.22,9-5.27,11.44-6.73Z" transform="translate(-181.32 -117.83)"/><path class="cls-13" d="M392.62,336.46l-11.39,6.76,10.71,6.22c2.24-1.3,9.08-5.34,11.43-6.73Z" transform="translate(-181.32 -117.83)"/><polygon class="cls-13" points="223.79 225.88 212.4 232.63 231.62 243.79 243.19 237.14 223.79 225.88"/><path class="cls-13" d="M301.62,299.78,290,306.43l15,8.69c2-1.14,8.84-5.2,11.44-6.73Z" transform="translate(-181.32 -117.83)"/><path class="cls-13" d="M330.67,316.69l-11.44,6.75,8.46,4.91c2.26-1.32,9.1-5.35,11.43-6.73Z" transform="translate(-181.32 -117.83)"/><path class="cls-13" d="M351.64,328.87l-11.41,6.75,10.71,6.22c2.15-1.25,9-5.29,11.44-6.73Z" transform="translate(-181.32 -117.83)"/><path class="cls-13" d="M340.91,322.63l-11.4,6.75,9,5.2c2.35-1.37,9.19-5.41,11.43-6.73Z" transform="translate(-181.32 -117.83)"/><path class="cls-13" d="M364.13,336.12l-11.4,6.75,8.5,4.91,11.43-6.73Z" transform="translate(-181.32 -117.83)"/><path class="cls-13" d="M374.37,342.06,363,348.78l8.09,4.7c2.66-1.55,9.56-5.62,11.43-6.73Z" transform="translate(-181.32 -117.83)"/><path class="cls-13" d="M318.23,309.44l-11.4,6.75,10.71,6.22L329,315.68Z" transform="translate(-181.32 -117.83)"/><path class="cls-13" d="M384.23,347.78l-11.4,6.75,10.72,6.25c2.48-1.44,9.32-5.49,11.43-6.73Z" transform="translate(-181.32 -117.83)"/><polygon class="cls-13" points="204.01 243.96 218.56 252.41 230.14 245.76 215.4 237.21 204.01 243.96"/><polygon class="cls-13" points="195.49 242.8 187.01 247.84 196.84 253.53 205.45 248.59 195.49 242.8"/><polygon class="cls-13" points="198.87 254.71 207.23 259.55 215.85 254.63 207.34 249.68 198.87 254.71"/><polygon class="cls-13" points="106.01 190.84 97.14 195.77 107.21 201.6 115.92 196.6 106.01 190.84"/><polygon class="cls-13" points="117.8 197.69 109.24 202.77 119.99 209 128.69 204.01 117.8 197.69"/><polygon class="cls-13" points="130.58 205.11 122.03 210.18 184.96 246.65 193.59 241.7 130.58 205.11"/><ellipse class="cls-21" cx="353.99" cy="200.01" rx="10.68" ry="17.5" transform="translate(-186.83 -107.75) rotate(-1.62)"/><ellipse class="cls-22" cx="351.68" cy="197.05" rx="16.1" ry="10.72" transform="translate(-57.41 411.82) rotate(-84.86)"/><ellipse class="cls-13" cx="351.5" cy="195.26" rx="4.67" ry="4.22" transform="translate(-56.88 409.27) rotate(-84.67)"/><path class="cls-13" d="M342.34,205.51s2.5-5.53,6.94-4.83,7.26,3,9.09,9.25a8.84,8.84,0,0,1-9.94,3.42A10.61,10.61,0,0,1,342.34,205.51Z" transform="translate(-181.32 -117.83)"/><path class="cls-19" d="M365.44,202a.51.51,0,0,0-.09-.18,1.3,1.3,0,0,0,.4-1,.93.93,0,0,0-.36-.63.68.68,0,0,0-.06-1,.65.65,0,0,0-.58-.15c-1,.19-1.62,1.47-2.14,2.23-.39.56-.75,1.14-1.09,1.72-.06-.84-.18-1.69-.24-2.48s-1.29-.84-1.29,0a12,12,0,0,1-.39,3.76,1,1,0,0,0-.34.25,30.79,30.79,0,0,1-13.2,8.16,1.21,1.21,0,0,0,.13,2.33,1.19,1.19,0,0,0,.86,1.06,1.37,1.37,0,0,0,.64.9l-.85.37c-1.38.58-.77,2.86.63,2.28a33.93,33.93,0,0,0,13.45-10.18c.41-.39.81-.78,1.21-1.19.62-.63,3.62-3.64,2.88-4.93C365.23,202.91,365.66,202.57,365.44,202Z" transform="translate(-181.32 -117.83)"/><path class="cls-19" d="M344.64,188c-1.41.56-2.5,3.6-2.38,4.24l1.11-.56.2-.22A13.48,13.48,0,0,1,344.64,188Z" transform="translate(-181.32 -117.83)"/><path class="cls-19" d="M344.83,190.44a.64.64,0,0,0-.25-.12l-.09-.08c-.55-.43-1.4.13-1.9.4a10.26,10.26,0,0,0-1.8,1.2,3.07,3.07,0,0,0-.53,1.16c-.21.5-.42,1-.66,1.49a29.17,29.17,0,0,1-1.65,3,28.35,28.35,0,0,1-4.2,5.13c-.74.72.39,1.84,1.13,1.12l.53-.53a.68.68,0,0,0,.75,0,3.47,3.47,0,0,0,.37-.3l.17-.14a.79.79,0,0,0,1,.45,1,1,0,0,0,.27-.17l.54-.57a.76.76,0,0,0,.39-.36s.08,1.09.1,1.06c.87-.92,1.9-3.47,2.77-5a.29.29,0,0,1,0-.2,5.17,5.17,0,0,0,.67-3,11.75,11.75,0,0,1,.19-2.14l1.42-1.1c.34-.26.71-.65.64-1A1.09,1.09,0,0,0,344.83,190.44Z" transform="translate(-181.32 -117.83)"/><path class="cls-12" d="M350.12,210.48c-5.05,1.48-5.92.92-8.31.84s-4.93-3.43-4.93-3.43-.6-7.49-5.07-1.63c-3.33,4.38-4.61,17.06-5,23.2a12.32,12.32,0,0,0,5.94,2.12,26.21,26.21,0,0,0,4.15.35,6.25,6.25,0,0,0,2.48-.54l2.37-11a17.07,17.07,0,0,0,10.7-3.07Z" transform="translate(-181.32 -117.83)"/><path class="cls-19" d="M339.23,201.47s3.25,6.24,0,8-5.73-1.15-6-1.9a5.17,5.17,0,0,1,6-6.1Z" transform="translate(-181.32 -117.83)"/><path class="cls-5" d="M339.51,200.54a6.7,6.7,0,0,0-5.58-.76,8.14,8.14,0,0,0-4.32,2.27,2.72,2.72,0,0,0-1.4-.47,2.86,2.86,0,0,0-2.88,1.78,2.49,2.49,0,0,0,1,2.93,3.17,3.17,0,0,0,2.38.22v.15c.11,1.18-1,1.77-1.44,2.77a2.35,2.35,0,0,0-.17,1.46c.11.49.62,1,.61,1.52a2.4,2.4,0,0,1-.52,1,4.88,4.88,0,0,0-.56,1.09,11.78,11.78,0,0,0,7.8.73,13.14,13.14,0,0,0,7.29-3.93,1.82,1.82,0,0,0-.49-.67,6.83,6.83,0,0,0-1.39-.73c-.69-.4,0-1.61,0-2.26,0-1.12-.86-1.59-1.79-2-.67-.28-.7-.69-.71-1.37a2.57,2.57,0,0,1,.32-1.56.9.9,0,0,0,.58-.12,4.58,4.58,0,0,1,1.11-.49.79.79,0,0,0,.48-1A.64.64,0,0,0,339.51,200.54Z" transform="translate(-181.32 -117.83)"/><path class="cls-5" d="M337.05,203a12.78,12.78,0,0,0,3-1.07c0-.1.31-4-6.58-2.64s-3.62,9.59-3.62,9.59" transform="translate(-181.32 -117.83)"/><path class="cls-23" d="M402.38,211.86l48.22,28.38a3.19,3.19,0,0,1,1.56,2.88L450.49,287a3.15,3.15,0,0,1-3.22,3.06,3.24,3.24,0,0,1-1.49-.42l-46.55-27.14a3.21,3.21,0,0,1-1.58-2.77V214.62a3.14,3.14,0,0,1,4.73-2.76Z" transform="translate(-181.32 -117.83)"/><path class="cls-8" d="M432.11,199.49c-1.93-.89-6.51-3.91-12.29-1.13s-11.26,7.92-5.29,23.06a8.6,8.6,0,0,0,6,.06s-1.23-13.25.63-14.79l19.42,10.79A13,13,0,0,1,433.81,230l5.35,4.91c4.38-.07,14-14,11-23.9S430.78,199,430.78,199" transform="translate(-181.32 -117.83)"/><path class="cls-24" d="M432.11,199.49c-1.93-.89-6.51-3.91-12.29-1.13s-11.26,7.92-5.29,23.06a8.6,8.6,0,0,0,6,.06s-1.23-13.25.63-14.79l19.42,10.79A13,13,0,0,1,433.81,230l5.35,4.91c4.38-.07,14-14,11-23.9S430.78,199,430.78,199" transform="translate(-181.32 -117.83)"/><path class="cls-25" d="M438.3,198.67c-1.32,1.46-3.85.8-5.52.42-2-.46-4.35-1.69-4.17-4.1a.29.29,0,0,0-.57,0c-.19,2.51,2.1,4,4.27,4.57,1.93.48,4.85,1.21,6.39-.49C438.94,198.78,438.54,198.4,438.3,198.67Z" transform="translate(-181.32 -117.83)"/><path class="cls-19" d="M427.5,193.47s0,12.29,4.51,13.09c5,.88,7.74-4.75,7.74-4.75s.64-10.86-4.29-11.81S427.65,191.9,427.5,193.47Z" transform="translate(-181.32 -117.83)"/><path class="cls-5" d="M431.29,201.78a1,1,0,0,1-.34-.05c.1-1.15.25-2.29.46-3.42a.32.32,0,0,0-.28-.36.3.3,0,0,0-.35.25,34.59,34.59,0,0,0-.49,3.66.34.34,0,0,0,.18.35,1.64,1.64,0,0,0,.87.22A.33.33,0,0,0,431.29,201.78Z" transform="translate(-181.32 -117.83)"/><path class="cls-5" d="M433.37,202a1.8,1.8,0,0,1-2.3,1c-.26-.09-.37.32-.11.41a2.23,2.23,0,0,0,2.78-1.16C433.86,202,433.49,201.78,433.37,202Z" transform="translate(-181.32 -117.83)"/><path class="cls-5" d="M432.81,200.27a.32.32,0,0,0-.32.32.32.32,0,0,0,.64,0A.32.32,0,0,0,432.81,200.27Z" transform="translate(-181.32 -117.83)"/><path class="cls-5" d="M428.84,199.41a.32.32,0,0,0-.32.32.32.32,0,1,0,.64,0A.32.32,0,0,0,428.84,199.41Z" transform="translate(-181.32 -117.83)"/><path class="cls-19" d="M436.23,200.59s1.19-4.72,2.51-3.16-2.14,4.95-2.14,4.95" transform="translate(-181.32 -117.83)"/><path class="cls-26" d="M437.46,188.47s4.4.47,5.68,4-2,10.47-4.37,11.56l2.86-6.12-.14-4.13Z" transform="translate(-181.32 -117.83)"/><path class="cls-26" d="M443.07,194c-.36-2.45-2-3.64-4.11-4.9l-.53-.28a3.65,3.65,0,0,0,1-1.24.32.32,0,0,0-.12-.44.29.29,0,0,0-.16,0,2,2,0,0,0-1.45.71,4.61,4.61,0,0,0-1-1.35.32.32,0,0,0-.54.14,1.71,1.71,0,0,0,.08,1.48,9.29,9.29,0,0,0-6.49,1,5.32,5.32,0,0,0-1.82,1.68,3.11,3.11,0,0,0-1.75.31,2.93,2.93,0,0,0-1.66,3.14,2.62,2.62,0,0,0,3.22,1.73,4.2,4.2,0,0,0,1.86-.87c-.4.67-.6,1.53.7,1.83,2.26.52,3.33-.83,3.47.3.12.92,1.39,1.43,2.3,1.45.07.14.24.51.44,1a2.7,2.7,0,0,1,1.41-.08.34.34,0,0,1,.48,0,.22.22,0,0,1,.07.09c.78,1.34.6,2.8.3,4.35a12.67,12.67,0,0,0,3-3.75A11.07,11.07,0,0,0,443.07,194Zm-6.4-6.59.09.14a.17.17,0,0,0,0,.1,1,1,0,0,0,.12.31A1.17,1.17,0,0,1,436.67,187.43Z" transform="translate(-181.32 -117.83)"/><path class="cls-27" d="M461,252.78l28.69,16.73a1.75,1.75,0,0,1,.87,1.52h0a1.76,1.76,0,0,1-2.65,1.52l-28.68-16.63a1.78,1.78,0,0,1-.88-1.52v-.1a1.76,1.76,0,0,1,1.76-1.76A1.66,1.66,0,0,1,461,252.78Z" transform="translate(-181.32 -117.83)"/><path class="cls-27" d="M461,261.78l28.69,16.73a1.75,1.75,0,0,1,.87,1.52h0a1.76,1.76,0,0,1-2.65,1.52L459.23,265a1.78,1.78,0,0,1-.88-1.52v-.1a1.76,1.76,0,0,1,2.65-1.57Z" transform="translate(-181.32 -117.83)"/><path class="cls-27" d="M461,270.87l28.69,16.73a1.75,1.75,0,0,1,.87,1.52h0a1.76,1.76,0,0,1-2.65,1.52L459.23,274a1.78,1.78,0,0,1-.88-1.52v-.1a1.76,1.76,0,0,1,1.76-1.76A1.66,1.66,0,0,1,461,270.87Z" transform="translate(-181.32 -117.83)"/><path class="cls-28" d="M461,279.91l28.69,16.73a1.75,1.75,0,0,1,.87,1.52h0a1.76,1.76,0,0,1-2.65,1.52l-28.68-16.62a1.78,1.78,0,0,1-.88-1.52v-.1a1.75,1.75,0,0,1,1.75-1.77A1.69,1.69,0,0,1,461,279.91Z" transform="translate(-181.32 -117.83)"/><polygon class="cls-22" points="207.66 103.66 207.66 132.62 185.25 119.78 185.25 91.07 207.66 103.66"/><polygon class="cls-22" points="187.84 119.78 187.84 126.86 193.55 121.89 187.84 119.78"/><path class="cls-13" d="M375.41,224.43l-5,3.08a.68.68,0,0,0-.24.93l3.9,5.31c.51.7,1.69,0,1.17-.68l-3.95-5.29-.24.93,5-3.08c.74-.45.06-1.63-.68-1.17Z" transform="translate(-181.32 -117.83)"/><path class="cls-13" d="M378.8,227.17,383,233l.24-.93-5.08,2.54c-.78.39-.09,1.56.68,1.17l5.08-2.54a.68.68,0,0,0,.24-.93L380,226.48c-.5-.71-1.68,0-1.17.68Z" transform="translate(-181.32 -117.83)"/><ellipse class="cls-29" cx="308.28" cy="139.87" rx="1.61" ry="1.75"/><ellipse class="cls-30" cx="303.14" cy="137.24" rx="1.61" ry="1.75"/><ellipse class="cls-31" cx="298" cy="134.69" rx="1.61" ry="1.75"/><polyline class="cls-32" points="138.38 157.34 173.6 177.31 186.44 170.71"/><line class="cls-32" x1="173.49" y1="177.6" x2="173.49" y2="185.67"/><path class="cls-19" d="M329.53,288.78a4.37,4.37,0,0,1-2-.95,3.69,3.69,0,0,1-.42-2.16v-2.09a.35.35,0,0,1-.13-.26,12.06,12.06,0,0,1,0-1.7l-2.86-.28a50.38,50.38,0,0,0-1.19,5.45c.08.56,2.8,4.28,4.19,4.53s5.23-1,5.55-1.49h0C331.63,289.52,330.57,289.19,329.53,288.78Z" transform="translate(-181.32 -117.83)"/><path class="cls-19" d="M349.31,278.62a28.14,28.14,0,0,0-4.85.45s-.55-3.19-.47-3.35l-4.07.28s-.51,5.92-.51,6.7c0,1.43,1.78,1.89,2.17,1.83a8.33,8.33,0,0,0,.82-.34,11.28,11.28,0,0,1-.23-2.24.65.65,0,0,1,.42-.71,5.41,5.41,0,0,1,2.33.21c.73.14,1.45.31,2.18.44a11,11,0,0,0,3.07-2C350.43,279.1,350.76,278.91,349.31,278.62Z" transform="translate(-181.32 -117.83)"/><path class="cls-5" d="M350.67,278.88l-.1-.11c-.31-.3-1.13-.27-1.51-.29a19.27,19.27,0,0,0-4.6.59s3.69-.5,3.83.16a1.78,1.78,0,0,1-.37,1.52c-1.54,1.37-3.95-.14-5.45-.79l-2.79-1.2L339.5,281a16.26,16.26,0,0,0,0,3.12c.19.32,1.84,1.19,2.19,1s1.43-.83,1.43-.83l-.22-2.74s2.3,1,3.39.72C347.12,282.1,351.63,280.16,350.67,278.88Z" transform="translate(-181.32 -117.83)"/><path class="cls-5" d="M325.58,286.91s1.5,4.68,2,5,6.3-1.53,5.44-2.63c-.55-.7-4-.69-4.33-.78,0,0,1.83.6,1.83.89a4.77,4.77,0,0,1-2.42,1.14c-.12-.22-2.62-4.32-2.62-4.32l-2.35-.83-1.9,4.29,1.64.7s.5,1.31.67,1.31a19.44,19.44,0,0,0,1.51-2.41,6.49,6.49,0,0,0,.57,1.71c.23.17,2.14,1.74,3,.54L327,289.71" transform="translate(-181.32 -117.83)"/><polyline class="cls-5" points="139.91 171.83 140.21 172.9 142.22 173.84 142.22 171.83 141.06 171.43"/><path class="cls-16" d="M337.54,277.61a11.76,11.76,0,0,0,10.17-2.41c.06-6,.62-11.47.44-17.49-.29-9.83-1.72-19.48-8.62-27.15L327,228.63c-5.1,9.7-6.14,54.07-6.14,54.07s6.4,4.08,11.27,2.08l1.89-37s3.33,3.94,3.93,6.14C338.36,255.58,337.46,270.18,337.54,277.61Z" transform="translate(-181.32 -117.83)"/><ellipse class="cls-8" cx="103.06" cy="135.8" rx="22.17" ry="10.96"/><ellipse class="cls-33" cx="103.06" cy="135.8" rx="22.17" ry="10.96"/><path class="cls-34" d="M518,359.17l-17.92,10.61s5.55,9.74,19.24,15.49l20.91-11.21" transform="translate(-181.32 -117.83)"/><ellipse class="cls-12" cx="351.63" cy="245.35" rx="16.62" ry="11.71"/><ellipse class="cls-15" cx="351.62" cy="238.44" rx="12.45" ry="5.1"/><path class="cls-16" d="M532.48,347.78c0-2.3-.08-4.6-.26-6.89-.05-.6-.1-1.19-.16-1.78l-.13-1.17c0-.34-.18-1.23-.18-1.19l-.24-1.4a54.81,54.81,0,0,0-8.89-21.74,31.78,31.78,0,0,0-2.47,12.73c0,1.26.1,2.52.21,3.78v.53c0,.05,0-.08,0,.21.1.62.22,1.24.34,1.85a50.36,50.36,0,0,0,2,6.9,43,43,0,0,0,2.69,6q1.69,3.25,3.68,6.35c1,1.61,2,3.06,3,4.43C532.34,353.53,532.48,350.65,532.48,347.78Zm-6.54-25.85a2.23,2.23,0,0,0-.06-.89h0c.32.32.63.66.93,1A2.85,2.85,0,0,0,525.94,321.93Z" transform="translate(-181.32 -117.83)"/><path class="cls-16" d="M536.77,349.55q1.88-2.9,3.51-5.94c.28-.53.56-1.06.83-1.59l.52-1.06.49-1.1c.19-.44.37-.87.55-1.31a54.92,54.92,0,0,0,4.27-23.09,31.78,31.78,0,0,0-9,9.37c-.67,1.07-1.28,2.17-1.87,3.29l-.25.47s0-.06-.07.21c-.25.58-.49,1.16-.71,1.74a49.42,49.42,0,0,0-2.07,6.87,42,42,0,0,0-1,6.51c-.23,2.44-.33,4.89-.34,7.33,0,1.91,0,3.66.12,5.34A85.8,85.8,0,0,0,536.77,349.55Zm8.46-25.28a2.22,2.22,0,0,0,.43-.78h0q.14.66.24,1.35A2.6,2.6,0,0,0,545.23,324.27Z" transform="translate(-181.32 -117.83)"/><path class="cls-16" d="M536.68,355.28q1.94-1,3.81-2.07l1-.59.62-.4.62-.43.72-.53a34.7,34.7,0,0,0,9.76-11.08,19.82,19.82,0,0,0-7.86,2.17c-.71.36-1.39.76-2.07,1.17l-.29.17-.1.09-.95.71a31.64,31.64,0,0,0-3.34,3,26,26,0,0,0-2.64,3.19c-.91,1.24-1.76,2.53-2.55,3.85-.62,1-1.16,2-1.66,2.92C533.4,356.78,535.05,356.09,536.68,355.28Zm12.73-10.91a1.49,1.49,0,0,0,.49-.28h0q-.14.41-.3.81a1.86,1.86,0,0,0-.19-.53Z" transform="translate(-181.32 -117.83)"/><path class="cls-16" d="M532.48,347.78c0-2.3-.08-4.6-.26-6.89-.05-.6-.1-1.19-.16-1.78l-.13-1.17c0-.34-.18-1.23-.18-1.19l-.24-1.4a54.81,54.81,0,0,0-8.89-21.74,31.78,31.78,0,0,0-2.47,12.73c0,1.26.1,2.52.21,3.78v.53c0,.05,0-.08,0,.21.1.62.22,1.24.34,1.85a50.36,50.36,0,0,0,2,6.9,43,43,0,0,0,2.69,6q1.69,3.25,3.68,6.35c1,1.61,2,3.06,3,4.43C532.34,353.53,532.48,350.65,532.48,347.78Zm-6.54-25.85a2.23,2.23,0,0,0-.06-.89h0c.32.32.63.66.93,1A2.85,2.85,0,0,0,525.94,321.93Z" transform="translate(-181.32 -117.83)"/><path class="cls-16" d="M536.77,349.55q1.88-2.9,3.51-5.94c.28-.53.56-1.06.83-1.59l.52-1.06.49-1.1c.19-.44.37-.87.55-1.31a54.92,54.92,0,0,0,4.27-23.09,31.78,31.78,0,0,0-9,9.37c-.67,1.07-1.28,2.17-1.87,3.29l-.25.47s0-.06-.07.21c-.25.58-.49,1.16-.71,1.74a49.42,49.42,0,0,0-2.07,6.87,42,42,0,0,0-1,6.51c-.23,2.44-.33,4.89-.34,7.33,0,1.91,0,3.66.12,5.34A85.8,85.8,0,0,0,536.77,349.55Zm8.46-25.28a2.22,2.22,0,0,0,.43-.78h0q.14.66.24,1.35A2.6,2.6,0,0,0,545.23,324.27Z" transform="translate(-181.32 -117.83)"/><path class="cls-16" d="M536.68,355.28q1.94-1,3.81-2.07l1-.59.62-.4.62-.43.72-.53a34.7,34.7,0,0,0,9.76-11.08,19.82,19.82,0,0,0-7.86,2.17c-.71.36-1.39.76-2.07,1.17l-.29.17-.1.09-.95.71a31.64,31.64,0,0,0-3.34,3,26,26,0,0,0-2.64,3.19c-.91,1.24-1.76,2.53-2.55,3.85-.62,1-1.16,2-1.66,2.92C533.4,356.78,535.05,356.09,536.68,355.28Zm12.73-10.91a1.49,1.49,0,0,0,.49-.28h0q-.14.41-.3.81a1.86,1.86,0,0,0-.19-.53Z" transform="translate(-181.32 -117.83)"/></svg>